<svg width="44" height="31" viewBox="0 0 44 31" fill="none" xmlns="http://www.w3.org/2000/svg">
<path d="M22 0.246582C12 0.246582 3.46 6.46658 0 15.2466C3.46 24.0266 12 30.2466 22 30.2466C32 30.2466 40.54 24.0266 44 15.2466C40.54 6.46658 32 0.246582 22 0.246582ZM22 25.2466C16.48 25.2466 12 20.7666 12 15.2466C12 9.72658 16.48 5.24658 22 5.24658C27.52 5.24658 32 9.72658 32 15.2466C32 20.7666 27.52 25.2466 22 25.2466ZM22 9.24658C18.68 9.24658 16 11.9266 16 15.2466C16 18.5666 18.68 21.2466 22 21.2466C25.32 21.2466 28 18.5666 28 15.2466C28 11.9266 25.32 9.24658 22 9.24658Z" fill="#003846"/>
</svg>
