<svg width="50" height="28" viewBox="0 0 50 28" fill="none" xmlns="http://www.w3.org/2000/svg">
<path d="M2.27273 27.7466V23.2466H47.7273V27.7466H2.27273ZM4.88636 14.1341L1.93182 12.4466L3.86364 9.07158H0V5.69658H3.86364L1.93182 2.43408L4.88636 0.746582L6.81818 4.00908L8.75 0.746582L11.7045 2.43408L9.77273 5.69658H13.6364V9.07158H9.77273L11.7045 12.4466L8.75 14.1341L6.81818 10.7591L4.88636 14.1341ZM23.0682 14.1341L20.1136 12.4466L22.0455 9.07158H18.1818V5.69658H22.0455L20.1136 2.43408L23.0682 0.746582L25 4.00908L26.9318 0.746582L29.8864 2.43408L27.9545 5.69658H31.8182V9.07158H27.9545L29.8864 12.4466L26.9318 14.1341L25 10.7591L23.0682 14.1341ZM41.25 14.1341L38.2955 12.4466L40.2273 9.07158H36.3636V5.69658H40.2273L38.2955 2.43408L41.25 0.746582L43.1818 4.00908L45.1136 0.746582L48.0682 2.43408L46.1364 5.69658H50V9.07158H46.1364L48.0682 12.4466L45.1136 14.1341L43.1818 10.7591L41.25 14.1341Z" fill="#003846"/>
</svg>
