<svg width="50" height="59" viewBox="0 0 50 59" fill="none" xmlns="http://www.w3.org/2000/svg">
<path d="M25 0C11.2 0 0 11.2 0 25C0 38.8 11.2 50 25 50C38.8 50 50 38.8 50 25C50 11.2 38.8 0 25 0ZM25 10C29.825 10 33.75 13.925 33.75 18.75C33.75 23.575 29.825 27.5 25 27.5C20.175 27.5 16.25 23.575 16.25 18.75C16.25 13.925 20.175 10 25 10ZM25 45C19.925 45 13.925 42.95 9.65 37.8C14.029 34.3643 19.4341 32.497 25 32.497C30.5659 32.497 35.971 34.3643 40.35 37.8C36.075 42.95 30.075 45 25 45Z" fill="#04A7C3"/>
<circle cx="25" cy="25" r="23.75" stroke="#19C98A" stroke-width="2.5"/>
<rect y="40" width="44" height="19" rx="5" fill="#19C98A"/>
<path d="M5.288 54C5.19467 54 5.148 53.9487 5.148 53.846V44.984C5.148 44.8813 5.19467 44.83 5.288 44.83H6.338C6.43133 44.83 6.478 44.8813 6.478 44.984V52.796H10.286C10.3887 52.796 10.44 52.8473 10.44 52.95V53.846C10.44 53.9487 10.3887 54 10.286 54H5.288ZM14.2875 54.168C13.3355 54.168 12.6075 53.9393 12.1035 53.482C11.5995 53.0153 11.3475 52.3107 11.3475 51.368V49.786C11.3475 48.8433 11.5948 48.1433 12.0895 47.686C12.5935 47.2193 13.3262 46.986 14.2875 46.986C15.2488 46.986 15.9815 47.2193 16.4855 47.686C16.9895 48.1433 17.2415 48.8433 17.2415 49.786V51.368C17.2415 52.3107 16.9895 53.0153 16.4855 53.482C15.9908 53.9393 15.2582 54.168 14.2875 54.168ZM14.2875 53.006C14.8568 53.006 15.2675 52.8613 15.5195 52.572C15.7808 52.2827 15.9115 51.8393 15.9115 51.242V49.898C15.9115 49.31 15.7808 48.8713 15.5195 48.582C15.2675 48.2927 14.8568 48.148 14.2875 48.148C13.7182 48.148 13.3075 48.2927 13.0555 48.582C12.8035 48.8713 12.6775 49.31 12.6775 49.898V51.242C12.6775 51.8393 12.8035 52.2827 13.0555 52.572C13.3075 52.8613 13.7182 53.006 14.2875 53.006ZM21.611 56.758C20.5003 56.758 19.7023 56.6087 19.217 56.31C18.7317 56.0207 18.489 55.582 18.489 54.994C18.489 54.6207 18.5777 54.2893 18.755 54C18.9323 53.72 19.2123 53.4913 19.595 53.314L20.631 53.692C20.3603 53.776 20.1643 53.9067 20.043 54.084C19.9217 54.2707 19.861 54.4853 19.861 54.728C19.861 55.0827 19.9917 55.3253 20.253 55.456C20.5237 55.596 20.995 55.666 21.667 55.666C22.3857 55.666 22.8757 55.596 23.137 55.456C23.4077 55.316 23.543 55.0593 23.543 54.686C23.543 54.434 23.4823 54.2473 23.361 54.126C23.2397 54.0047 23.039 53.9393 22.759 53.93L20.183 53.776C19.875 53.7573 19.5997 53.6453 19.357 53.44C19.1237 53.2347 19.007 52.9173 19.007 52.488C19.007 52.292 19.035 52.1147 19.091 51.956C19.1563 51.7973 19.2543 51.648 19.385 51.508C19.525 51.368 19.707 51.214 19.931 51.046L20.757 51.508C20.561 51.5827 20.4163 51.6807 20.323 51.802C20.239 51.914 20.197 52.0447 20.197 52.194C20.197 52.3527 20.2483 52.4647 20.351 52.53C20.4537 52.5953 20.617 52.6373 20.841 52.656L23.151 52.796C23.7297 52.8333 24.159 53.0107 24.439 53.328C24.719 53.6453 24.859 54.112 24.859 54.728C24.859 55.4467 24.5977 55.9647 24.075 56.282C23.5617 56.5993 22.7403 56.758 21.611 56.758ZM21.723 51.788C20.8363 51.788 20.1783 51.592 19.749 51.2C19.3197 50.7987 19.105 50.192 19.105 49.38C19.105 48.568 19.3197 47.966 19.749 47.574C20.1877 47.182 20.8597 46.986 21.765 46.986C22.6423 46.986 23.291 47.1867 23.711 47.588C24.131 47.98 24.341 48.582 24.341 49.394C24.341 50.206 24.131 50.808 23.711 51.2C23.291 51.592 22.6283 51.788 21.723 51.788ZM21.723 50.668C22.2177 50.668 22.5583 50.5747 22.745 50.388C22.941 50.192 23.039 49.8607 23.039 49.394C23.039 48.918 22.941 48.582 22.745 48.386C22.549 48.19 22.2083 48.092 21.723 48.092C21.2377 48.092 20.897 48.19 20.701 48.386C20.5143 48.582 20.421 48.918 20.421 49.394C20.421 49.8607 20.5143 50.192 20.701 50.388C20.897 50.5747 21.2377 50.668 21.723 50.668ZM23.473 47.77L22.437 47.336C22.4743 46.9067 22.5163 46.5473 22.563 46.258C22.6097 45.9593 22.6563 45.7073 22.703 45.502C22.731 45.39 22.787 45.334 22.871 45.334H23.823C23.935 45.334 23.977 45.3853 23.949 45.488C23.8557 45.7867 23.7717 46.104 23.697 46.44C23.6317 46.7667 23.557 47.21 23.473 47.77ZM29.3472 54C29.2539 54 29.2072 53.9487 29.2072 53.846V47.294C29.2072 47.2007 29.2539 47.154 29.3472 47.154H30.3832C30.4859 47.154 30.5372 47.2007 30.5372 47.294V53.846C30.5372 53.9487 30.4859 54 30.3832 54H29.3472ZM29.8652 46.048C29.5852 46.048 29.3752 45.9733 29.2352 45.824C29.1046 45.6747 29.0392 45.4787 29.0392 45.236V45.082C29.0392 44.8393 29.1046 44.6433 29.2352 44.494C29.3752 44.3447 29.5852 44.27 29.8652 44.27C30.1546 44.27 30.3646 44.3447 30.4952 44.494C30.6259 44.6433 30.6912 44.8393 30.6912 45.082V45.236C30.6912 45.4787 30.6259 45.6747 30.4952 45.824C30.3646 45.9733 30.1546 46.048 29.8652 46.048ZM37.1492 54C37.0465 54 36.9952 53.9487 36.9952 53.846V49.436C36.9952 48.988 36.9018 48.6613 36.7152 48.456C36.5378 48.2507 36.2672 48.148 35.9032 48.148C35.5485 48.148 35.1985 48.2553 34.8532 48.47C34.5172 48.6753 34.1018 49.0207 33.6072 49.506V48.386C33.9058 48.0593 34.1952 47.7933 34.4752 47.588C34.7645 47.3827 35.0538 47.2333 35.3432 47.14C35.6325 47.0373 35.9405 46.986 36.2672 46.986C36.9392 46.986 37.4478 47.182 37.7932 47.574C38.1478 47.9567 38.3252 48.5353 38.3252 49.31V53.846C38.3252 53.9487 38.2785 54 38.1852 54H37.1492ZM32.6832 54C32.5898 54 32.5432 53.9487 32.5432 53.846V48.876C32.5432 48.624 32.5292 48.3487 32.5012 48.05C32.4825 47.7513 32.4638 47.5133 32.4452 47.336C32.4265 47.2147 32.4732 47.154 32.5852 47.154H33.5372C33.5838 47.154 33.6212 47.1633 33.6492 47.182C33.6772 47.2007 33.6958 47.238 33.7052 47.294C33.7238 47.3687 33.7425 47.4853 33.7612 47.644C33.7798 47.7933 33.7985 47.952 33.8172 48.12C33.8358 48.288 33.8452 48.4327 33.8452 48.554L33.8732 48.988V53.846C33.8732 53.9487 33.8218 54 33.7192 54H32.6832Z" fill="white"/>
</svg>
