<svg width="45" height="44" viewBox="0 0 60 59" fill="none" xmlns="http://www.w3.org/2000/svg">
<path d="M10.8508 16.5103L15.0525 18.6112C15.8259 18.949 16.6675 19.1012 17.5102 19.0556C18.3528 19.01 19.1731 18.7679 19.9054 18.3486L23.8761 15.7645C24.5593 15.2686 25.1154 14.6179 25.4988 13.8657C25.8822 13.1135 26.0821 12.2811 26.0819 11.4368L25.8299 6.69941C25.7379 5.86191 25.4505 5.05761 24.9907 4.35151C24.5309 3.64542 23.9116 3.05719 23.1828 2.63429L18.9811 0.480926C18.2092 0.139119 17.3676 -0.0161327 16.5246 0.0276698C15.6815 0.0714723 14.8605 0.313068 14.1281 0.733026L10.1576 3.31706C9.47561 3.81422 8.92036 4.46517 8.53716 5.21716C8.15387 5.96906 7.95324 6.80088 7.95166 7.64479L8.20376 12.3822C8.28538 13.2311 8.56804 14.0484 9.02834 14.7662C9.48863 15.4842 10.1134 16.0821 10.8508 16.5103Z" fill="#04A7C3"/>
<path d="M36.1974 22.6449L31.9957 20.4915C31.2242 20.1538 30.3843 20.0017 29.5433 20.0473C28.7024 20.0929 27.8839 20.335 27.1533 20.7541L23.1407 23.3382C22.4612 23.8377 21.9077 24.4891 21.5247 25.2406C21.1417 25.992 20.9396 26.8225 20.9348 27.6659L21.187 32.4033C21.2789 33.2409 21.5663 34.0452 22.0261 34.7513C22.486 35.4574 23.1052 36.0456 23.834 36.4684L28.0357 38.5693C28.8058 38.911 29.6456 39.0663 30.4871 39.0225C31.3285 38.9787 32.1476 38.737 32.8781 38.3172L36.8592 35.7331C37.539 35.2315 38.0924 34.5781 38.4753 33.8249C38.8582 33.0719 39.0602 32.2398 39.0651 31.3949L38.813 26.668C38.7166 25.8412 38.4304 25.0478 37.9767 24.3499C37.5229 23.652 36.914 23.0685 36.1974 22.6449Z" fill="url(#paint0_linear_9_348)"/>
<path d="M49.1597 42.624L44.958 40.5232C44.186 40.1813 43.3446 40.026 42.5015 40.0698C41.6584 40.1136 40.8374 40.3552 40.1051 40.7753L36.1346 43.3593C35.4537 43.8575 34.8994 44.5088 34.5163 45.2604C34.1331 46.0121 33.9318 46.8433 33.9286 47.687L34.1808 52.4244C34.2813 53.2485 34.5706 54.0383 35.0261 54.7323C35.4814 55.4264 36.0909 56.0061 36.8068 56.4265L41.0085 58.5274C41.7818 58.8651 42.6234 59.0173 43.4661 58.9717C44.3087 58.9261 45.129 58.684 45.8615 58.2648L49.8425 55.6807C50.5226 55.1824 51.0758 54.5309 51.4572 53.779C51.8386 53.0272 52.0375 52.1961 52.0379 51.353L51.8173 46.6996C51.7266 45.859 51.4387 45.0516 50.9768 44.3433C50.515 43.6351 49.8923 43.046 49.1597 42.624Z" fill="#006370"/>
<path d="M18.2038 30.8591L18.0042 27.1721C18.009 26.3287 18.211 25.4982 18.5941 24.7468C18.9771 23.9953 19.5305 23.3438 20.2101 22.8444L27.9517 17.8129C28.6821 17.3937 29.5007 17.1516 30.3417 17.106C31.1827 17.0604 32.0226 17.2126 32.7941 17.5503L36.0924 19.2309C36.8644 19.5727 37.7059 19.7281 38.549 19.6843C39.3921 19.6405 40.213 19.3988 40.9454 18.9788L44.916 16.3843C45.5974 15.8866 46.1521 15.2355 46.5353 14.4837C46.9185 13.7319 47.1194 12.9005 47.1218 12.0566L46.8697 7.32967C46.7794 6.49027 46.4926 5.68387 46.0328 4.97589C45.5729 4.2678 44.9528 3.67798 44.2227 3.25403L40.021 1.10067C39.2477 0.762964 38.4061 0.610758 37.5633 0.656346C36.7207 0.701935 35.9004 0.944057 35.1681 1.36328L31.1134 3.9053C30.4333 4.40362 29.8801 5.05509 29.4987 5.80698C29.1173 6.55887 28.9184 7.38996 28.9181 8.23303L29.1071 11.92C29.1068 12.7632 28.9078 13.5943 28.5264 14.3462C28.145 15.098 27.5918 15.7495 26.9118 16.2477L19.1702 21.2792C18.4378 21.6992 17.6169 21.9409 16.7738 21.9847C15.9307 22.0285 15.0892 21.8732 14.3172 21.5313L11.0294 19.8612C10.2575 19.5194 9.41597 19.3641 8.57279 19.4079C7.72973 19.4517 6.90882 19.6933 6.17647 20.1133L2.20588 22.6973C1.52384 23.1945 0.968698 23.8454 0.5854 24.5974C0.202101 25.3494 0.00157563 26.1811 0 27.025L0.252099 31.7624C0.341594 32.6021 0.628044 33.4089 1.08792 34.1171C1.5479 34.8253 2.16838 35.4149 2.89916 35.8381L7.10084 37.9389C7.87416 38.2767 8.71575 38.4289 9.5584 38.3833C10.401 38.3377 11.2214 38.0956 11.9538 37.6763L15.9244 35.0923C16.6067 34.6119 17.1677 33.9793 17.5634 33.2446C17.959 32.5099 18.1783 31.6932 18.2038 30.8591Z" fill="#006370"/>
<path d="M59.79 27.3089C59.6964 26.4703 59.4084 25.6653 58.9488 24.9577C58.4893 24.2501 57.8709 23.6596 57.143 23.2332L52.9413 21.1324C52.1677 20.7954 51.3261 20.6436 50.4837 20.6892C49.6412 20.7348 48.8209 20.9765 48.0883 21.395L44.1176 23.979C43.4369 24.4774 42.8827 25.1285 42.4995 25.8802C42.1164 26.6319 41.915 27.4631 41.9119 28.3068L42.1114 32.0042C42.1082 32.8478 41.9069 33.679 41.5237 34.4307C41.1406 35.1824 40.5863 35.8337 39.9055 36.332L32.1744 41.353C31.442 41.7722 30.6217 42.0143 29.7791 42.0599C28.9364 42.1055 28.0948 41.9533 27.3214 41.6156L24.0231 39.9349C23.2516 39.5972 22.4116 39.445 21.5707 39.4906C20.7297 39.5363 19.9112 39.7783 19.1807 40.1975L15.1681 42.7711C14.4885 43.2705 13.9352 43.9219 13.5521 44.6734C13.1691 45.4247 12.9671 46.2553 12.9623 47.0988L13.2143 51.8361C13.3063 52.6737 13.5937 53.478 14.0535 54.1841C14.5133 54.8902 15.1326 55.4784 15.8614 55.9013L20.0631 58.0547C20.8332 58.3964 21.673 58.5516 22.5144 58.5078C23.3559 58.464 24.175 58.2223 24.9056 57.8025L28.8865 55.2184C29.5655 54.7184 30.1186 54.0669 30.5015 53.3156C30.8844 52.5642 31.0868 51.734 31.0925 50.8908L30.8929 47.1932C30.8953 46.3494 31.0962 45.518 31.4794 44.7662C31.8626 44.0143 32.4173 43.3633 33.0987 42.8655L40.8298 37.8341C41.5622 37.4141 42.3832 37.1724 43.2262 37.1286C44.0693 37.0848 44.9108 37.2401 45.6828 37.5819L48.9706 39.2521C49.7425 39.594 50.5841 39.7492 51.4272 39.7054C52.2703 39.6616 53.0912 39.42 53.8235 39L57.8047 36.416C58.4841 35.9171 59.0369 35.2655 59.4182 34.5138C59.7996 33.762 59.9988 32.9311 60 32.0883L59.79 27.3089Z" fill="#04A7C3"/>
<defs>
<linearGradient id="paint0_linear_9_348" x1="25.2416" y1="22.5819" x2="35.7458" y2="36.2373" gradientUnits="userSpaceOnUse">
<stop stop-color="#27F3FF"/>
<stop offset="1" stop-color="#006370"/>
</linearGradient>
</defs>
</svg>
