<svg width="73" height="71" viewBox="0 0 83 81" fill="none" xmlns="http://www.w3.org/2000/svg">
<path d="M15.5171 23.0572L21.2183 25.9078C22.2677 26.3662 23.4096 26.5727 24.553 26.5108C25.6964 26.449 26.8094 26.1205 27.8031 25.5515L33.1908 22.0453C34.1178 21.3724 34.8723 20.4895 35.3925 19.4688C35.9128 18.4482 36.184 17.3188 36.1837 16.1731L35.8418 9.74512C35.7169 8.60875 35.327 7.5174 34.7031 6.55933C34.0791 5.60126 33.2389 4.8031 32.2499 4.22928L26.5488 1.30746C25.5015 0.84367 24.3596 0.633015 23.2157 0.692449C22.0717 0.751883 20.9577 1.0797 19.964 1.64952L14.5766 5.15572C13.6512 5.8303 12.8978 6.71355 12.3778 7.7339C11.8577 8.75412 11.5855 9.8828 11.5834 11.0279L11.9254 17.4559C12.0362 18.6078 12.4197 19.7167 13.0443 20.6907C13.6688 21.6649 14.5166 22.4762 15.5171 23.0572Z" fill="#F2FBFC"/>
<path d="M49.909 31.3812L44.2079 28.4594C43.161 28.0012 42.0214 27.7948 40.8803 27.8567C39.7392 27.9185 38.6287 28.2471 37.6374 28.8157L32.1928 32.3219C31.2708 32.9997 30.5198 33.8836 30.0001 34.9033C29.4805 35.9228 29.2063 37.0497 29.1997 38.1941L29.5419 44.6221C29.6666 45.7586 30.0566 46.85 30.6804 47.808C31.3044 48.7661 32.1446 49.5643 33.1335 50.1379L38.8346 52.9885C39.8796 53.4521 41.0191 53.6629 42.1609 53.6035C43.3026 53.5441 44.414 53.2161 45.4051 52.6464L50.807 49.1402C51.7294 48.4595 52.4802 47.573 52.9998 46.5511C53.5194 45.5293 53.7935 44.4002 53.8 43.2538L53.458 36.8401C53.3273 35.7182 52.9389 34.6417 52.3233 33.6948C51.7076 32.7478 50.8814 31.9561 49.909 31.3812Z" fill="#F2FBFC"/>
<path d="M67.4971 58.4902L61.796 55.6396C60.7486 55.1757 59.6068 54.965 58.4629 55.0245C57.3189 55.0839 56.2049 55.4117 55.2112 55.9817L49.8238 59.4879C48.8999 60.1639 48.1478 61.0476 47.628 62.0675C47.1081 63.0874 46.835 64.2153 46.8306 65.36L47.1728 71.7881C47.3092 72.9062 47.7017 73.9779 48.3197 74.9195C48.9376 75.8614 49.7645 76.648 50.736 77.2184L56.4371 80.0689C57.4864 80.5272 58.6283 80.7337 59.7717 80.6718C60.9151 80.61 62.0281 80.2815 63.0219 79.7126L68.4236 76.2064C69.3464 75.5303 70.097 74.6463 70.6145 73.6261C71.132 72.6059 71.402 71.4782 71.4026 70.3343L71.1031 64.0203C70.9801 62.8796 70.5894 61.7842 69.9627 60.8231C69.3362 59.8622 68.4913 59.0627 67.4971 58.4902Z" fill="#F2FBFC"/>
<path d="M25.4941 42.5265L25.2233 37.5237C25.2298 36.3794 25.5039 35.2524 26.0237 34.2329C26.5434 33.2133 27.2942 32.3293 28.2163 31.6516L38.7207 24.8245C39.7118 24.2558 40.8225 23.9273 41.9636 23.8654C43.1047 23.8036 44.2443 24.0101 45.2912 24.4682L49.7666 26.7486C50.814 27.2124 51.9558 27.4232 53.0998 27.3638C54.2438 27.3043 55.3577 26.9764 56.3514 26.4066L61.7389 22.8861C62.6635 22.2108 63.4162 21.3274 63.9362 20.3072C64.4561 19.2871 64.7288 18.159 64.732 17.014L64.39 10.6002C64.2674 9.46125 63.8783 8.36707 63.2543 7.40643C62.6303 6.44565 61.789 5.64535 60.7983 5.0701L55.0971 2.14828C54.0478 1.69005 52.9059 1.48353 51.7624 1.54539C50.619 1.60724 49.506 1.93577 48.5123 2.5046L43.0108 5.95378C42.0879 6.62993 41.3373 7.51389 40.8198 8.53411C40.3023 9.55432 40.0323 10.682 40.0319 11.8259L40.2885 16.8287C40.288 17.9727 40.018 19.1004 39.5004 20.1206C38.9829 21.1409 38.2324 22.0248 37.3096 22.7008L26.8053 29.5279C25.8116 30.0977 24.6978 30.4257 23.5538 30.4851C22.4098 30.5446 21.268 30.3338 20.2205 29.87L15.7594 27.6038C14.712 27.14 13.5702 26.9294 12.4261 26.9888C11.2822 27.0482 10.1683 27.376 9.17459 27.9459L3.78703 31.4521C2.8616 32.1266 2.10834 33.0099 1.58826 34.0302C1.06817 35.0506 0.796083 36.1791 0.793945 37.3242L1.13601 43.7522C1.25744 44.8916 1.64612 45.9862 2.27011 46.9471C2.89424 47.9081 3.73615 48.7081 4.72772 49.2823L10.4288 52.1329C11.4781 52.5912 12.6201 52.7978 13.7634 52.7359C14.9068 52.674 16.0199 52.3455 17.0136 51.7765L22.4012 48.2704C23.3271 47.6186 24.0883 46.7603 24.6252 45.7633C25.162 44.7665 25.4594 43.6583 25.4941 42.5265Z" fill="#F2FBFC"/>
<path d="M81.921 37.7093C81.794 36.5715 81.4032 35.4791 80.7796 34.5191C80.156 33.559 79.317 32.7577 78.3293 32.1792L72.6281 29.3286C71.5786 28.8714 70.4366 28.6654 69.2936 28.7273C68.1503 28.7892 67.0373 29.1171 66.0433 29.6849L60.6556 33.1911C59.7319 33.8673 58.9799 34.7508 58.46 35.7707C57.9402 36.7907 57.667 37.9185 57.6627 39.0633L57.9335 44.0803C57.9291 45.2249 57.656 46.3527 57.1361 47.3727C56.6163 48.3926 55.8641 49.2763 54.9403 49.9524L44.4502 56.7653C43.4565 57.3341 42.3435 57.6626 41.2001 57.7245C40.0568 57.7863 38.9148 57.5798 37.8654 57.1216L33.39 54.8412C32.3432 54.3829 31.2035 54.1764 30.0624 54.2383C28.9213 54.3003 27.8108 54.6286 26.8195 55.1975L21.3749 58.6894C20.4529 59.3671 19.7021 60.2509 19.1823 61.2706C18.6626 62.2901 18.3885 63.4171 18.382 64.5616L18.7239 70.9894C18.8487 72.1259 19.2387 73.2173 19.8625 74.1754C20.4865 75.1334 21.3267 75.9316 22.3157 76.5054L28.0169 79.4272C29.0617 79.8909 30.2012 80.1015 31.3429 80.0421C32.4847 79.9827 33.5961 79.6547 34.5874 79.085L39.9891 75.5788C40.9104 74.9004 41.6608 74.0163 42.1803 72.9969C42.7 71.9774 42.9745 70.8509 42.9823 69.7068L42.7115 64.6897C42.7146 63.5448 42.9873 62.4167 43.5072 61.3966C44.0272 60.3764 44.7799 59.493 45.7044 58.8175L56.1945 51.9906C57.1882 51.4208 58.3022 51.0928 59.4461 51.0334C60.5901 50.9739 61.7319 51.1846 62.7793 51.6484L67.2404 53.9147C68.2879 54.3785 69.4298 54.5892 70.5737 54.5297C71.7177 54.4703 72.8315 54.1425 73.8252 53.5726L79.2272 50.0665C80.1491 49.3894 80.899 48.5053 81.4164 47.4854C81.9339 46.4653 82.2043 45.3379 82.2059 44.1943L81.921 37.7093Z" fill="#F2FBFC"/>
</svg>
